<svg width="18" height="19" viewBox="0 0 18 19" fill="none" xmlns="http://www.w3.org/2000/svg">
<path fill-rule="evenodd" clip-rule="evenodd" d="M12.5181 9.50015C12.5181 9.14256 12.2282 8.85266 11.8706 8.85266H2.39781L4.09047 7.4018C4.36199 7.16909 4.39343 6.76032 4.16071 6.48882C3.92799 6.21731 3.51923 6.18586 3.24772 6.41859L0.226111 9.00857C0.0825935 9.13151 0 9.31117 0 9.50015C0 9.68913 0.0825935 9.86878 0.226111 9.99172L3.24772 12.5817C3.51923 12.8144 3.92799 12.783 4.16071 12.5115C4.39343 12.24 4.36199 11.8312 4.09047 11.5985L2.39781 10.1476H11.8706C12.2282 10.1476 12.5181 9.85773 12.5181 9.50015Z" fill="#3688FF"/>
<path d="M6.69067 6.04685C6.69067 6.65306 6.69067 6.95617 6.83615 7.17391C6.89915 7.26819 6.9801 7.34914 7.07438 7.41214C7.29215 7.55762 7.59526 7.55762 8.20148 7.55762H11.8706C12.9433 7.55762 13.813 8.42727 13.813 9.50011C13.813 10.5729 12.9433 11.4426 11.8706 11.4426H8.20148C7.59526 11.4426 7.29206 11.4426 7.07433 11.588C6.98008 11.6511 6.89916 11.732 6.83619 11.8262C6.69067 12.044 6.69067 12.3471 6.69067 12.9534C6.69067 15.3952 6.69067 16.6161 7.44927 17.3747C8.20787 18.1333 9.4286 18.1333 11.8704 18.1333H12.7337C15.1755 18.1333 16.3964 18.1333 17.155 17.3747C17.9136 16.6161 17.9136 15.3952 17.9136 12.9534V6.04685C17.9136 3.60502 17.9136 2.3841 17.155 1.62552C16.3964 0.866943 15.1755 0.866943 12.7337 0.866943H11.8704C9.4286 0.866943 8.20787 0.866943 7.44927 1.62552C6.69067 2.3841 6.69067 3.60501 6.69067 6.04685Z" fill="#3688FF"/>
</svg>
