<svg width="17" height="17" viewBox="0 0 17 17" fill="none" xmlns="http://www.w3.org/2000/svg">
<path d="M16.4081 3.50176C16.3597 3.40162 16.2878 3.31446 16.1985 3.24761C16.1091 3.18072 16.0049 3.13612 15.8946 3.11747C15.7842 3.09882 15.671 3.10671 15.5644 3.14044C15.4578 3.17421 15.3609 3.23283 15.2818 3.31145L12.6108 5.98272C12.4854 6.1039 12.3175 6.17199 12.1425 6.17265C11.9674 6.17327 11.799 6.10642 11.6728 5.98618L11.0277 5.33912C10.902 5.21217 10.8316 5.0413 10.8316 4.86335C10.8316 4.68535 10.902 4.51452 11.0277 4.38757L13.6987 1.71283C13.777 1.63512 13.8354 1.53986 13.8687 1.43505C13.9021 1.33024 13.9096 1.21903 13.8905 1.11076C13.8714 1.002 13.8267 0.899237 13.7601 0.81086C13.6934 0.722472 13.6067 0.650946 13.5069 0.602099C12.3582 0.0528231 11.0653 -0.12672 9.80868 0.0885394C8.55215 0.303799 7.39471 0.903112 6.49806 1.8028C5.65962 2.64633 5.0828 3.711 4.83616 4.87027C4.58953 6.02954 4.68347 7.23469 5.10676 8.34258L0.601562 12.8478C0.21618 13.2341 0 13.7557 0 14.2993C0 14.8429 0.21618 15.3645 0.601562 15.7509L1.24666 16.3945C1.43736 16.5863 1.66457 16.7386 1.91508 16.8425C2.16558 16.9465 2.43443 17 2.70596 17C2.97749 17 3.24634 16.9465 3.49685 16.8425C3.74735 16.7386 3.97456 16.5863 4.16527 16.3945L8.66349 11.8962C9.6365 12.264 10.6878 12.3805 11.7185 12.2346C12.7493 12.0887 13.7259 11.6853 14.5565 11.0623C15.6867 10.1997 16.4863 8.98015 16.8229 7.60531C17.1596 6.23051 17.0133 4.78279 16.4081 3.50176Z" fill="#3688FF"/>
</svg>
