<svg width="15" height="15" viewBox="0 0 15 15" fill="none" xmlns="http://www.w3.org/2000/svg">
<path d="M14.3429 4.49572V7.85913H11.417C11.3309 7.85196 11.1444 7.74439 11.1014 7.6655L10.3556 6.25273C10.0616 5.69335 9.55238 5.37781 9.00735 5.40649C8.46232 5.43518 7.99617 5.80092 7.75952 6.39615L6.76986 8.87748L6.62643 8.50456C6.27502 7.59379 5.27102 6.90533 4.28136 6.90533L0 6.92684V4.49572C0 1.88531 1.55621 0.329102 4.16662 0.329102H10.1763C12.7867 0.329102 14.3429 1.88531 14.3429 4.49572Z" fill="#3688FF"/>
<path d="M14.3429 10.5045V8.93399H11.417C10.9365 8.93399 10.3699 8.58976 10.1476 8.16665L9.40178 6.75387C9.20098 6.37378 8.91412 6.3953 8.75635 6.78973L7.10691 10.9563C6.92763 11.4225 6.62643 11.4225 6.43997 10.9563L5.62242 8.89096C5.42879 8.38896 4.82639 7.98019 4.28853 7.98019L0 8.0017V10.5045C0 13.0719 1.50601 14.621 4.03753 14.664C4.11642 14.6712 4.20247 14.6712 4.28136 14.6712H10.0185C10.1261 14.6712 10.2337 14.6712 10.3341 14.664C12.8513 14.6066 14.3429 13.0648 14.3429 10.5045Z" fill="#3688FF"/>
</svg>
