<svg width="14" height="15" viewBox="0 0 14 15" fill="none" xmlns="http://www.w3.org/2000/svg">
<path d="M10.5 0H3.5C1.568 0 0 1.67334 0 3.73687V8.22411V8.97449C0 11.038 1.568 12.7114 3.5 12.7114H4.55C4.739 12.7114 4.991 12.8464 5.11 13.0115L6.16 14.5048C6.622 15.1651 7.378 15.1651 7.84 14.5048L8.89 13.0115C9.023 12.8239 9.233 12.7114 9.45 12.7114H10.5C12.432 12.7114 14 11.038 14 8.97449V3.73687C14 1.67334 12.432 0 10.5 0ZM7.7 8.81691H3.5C3.213 8.81691 2.975 8.56178 2.975 8.25413C2.975 7.94647 3.213 7.69135 3.5 7.69135H7.7C7.987 7.69135 8.225 7.94647 8.225 8.25413C8.225 8.56178 7.987 8.81691 7.7 8.81691ZM10.5 5.06503H3.5C3.213 5.06503 2.975 4.80991 2.975 4.50225C2.975 4.1946 3.213 3.93947 3.5 3.93947H10.5C10.787 3.93947 11.025 4.1946 11.025 4.50225C11.025 4.80991 10.787 5.06503 10.5 5.06503Z" fill="#3688FF"/>
</svg>
