<svg width="16" height="19" viewBox="0 0 16 19" fill="none" xmlns="http://www.w3.org/2000/svg">
<path d="M4.70703 16.749C5.44679 17.6894 6.60892 18.2954 7.91572 18.2954C9.22252 18.2954 10.3846 17.6894 11.1244 16.749C8.99437 17.0377 6.83707 17.0377 4.70703 16.749Z" fill="#3688FF"/>
<path d="M13.8517 6.8615V7.48078C13.8517 8.22398 14.0639 8.95055 14.4613 9.56886L15.4353 11.0843C16.325 12.4684 15.6459 14.3497 14.0984 14.7874C10.0506 15.9324 5.78089 15.9324 1.73298 14.7874C0.185624 14.3497 -0.493571 12.4684 0.396103 11.0843L1.37012 9.56886C1.7676 8.95055 1.9797 8.22398 1.9797 7.48078V6.8615C1.9797 3.46127 4.63735 0.704834 7.91572 0.704834C11.1941 0.704834 13.8517 3.46127 13.8517 6.8615Z" fill="#3688FF"/>
</svg>
