<svg width="19" height="19" viewBox="0 0 19 19" fill="none" xmlns="http://www.w3.org/2000/svg">
<path d="M13.59 9.12109C11.1026 9.12109 9.03979 11.1535 9.03979 13.6713C9.03979 16.1588 11.0722 18.2216 13.59 18.2216C16.1079 18.2216 18.1403 16.1892 18.1403 13.6713C18.1403 11.1535 16.0775 9.12109 13.59 9.12109ZM15.8045 13.095L14.9551 13.9444C14.8641 14.0354 14.8338 14.1264 14.8338 14.187L15.0461 15.4611C15.1068 15.8251 14.7731 15.6128 14.7731 15.6128L13.7417 15.0668C13.59 14.9758 13.4384 15.0668 13.4384 15.0668L12.3766 15.6128C12.1036 15.7645 12.1036 15.6128 12.1036 15.4914L12.316 14.3084C12.3463 14.0657 12.225 13.9747 12.225 13.9444L11.4666 13.2163L11.3756 13.1253C11.2846 13.0343 11.2239 12.8826 11.5576 12.822L12.6193 12.6703C12.771 12.64 12.862 12.5793 12.8923 12.5186L13.4687 11.3356C13.499 11.2445 13.6204 11.1535 13.7417 11.3962L14.3181 12.549C14.3484 12.6096 14.4394 12.64 14.5001 12.6703H14.5911L15.7135 12.822H15.7438C15.8045 12.8523 16.0169 12.913 15.8045 13.095Z" fill="#3688FF"/>
<path d="M8.73649 18.161C9.03984 18.161 9.22185 17.797 9.03984 17.5543C8.06912 16.4623 7.52309 15.0669 7.52309 13.6108C7.52309 12.5794 7.85677 11.4267 8.4028 10.5166C9.03984 9.42454 9.76788 8.96951 10.3442 8.12013C11.2846 6.72472 11.4666 4.72261 10.8599 3.20586C10.2532 1.65877 8.82749 0.74872 7.15907 0.779056C5.49064 0.809391 4.12556 1.84078 3.60987 3.38787C3.00317 5.08663 3.27618 7.14941 4.64126 8.42348C5.21763 8.93918 5.70299 9.75822 5.42997 10.5469C5.3693 10.6986 5.18729 10.9413 4.7626 11.1233C3.0335 11.8817 1.27407 12.7917 0.485361 14.0658C0.333685 14.3085 0.030335 14.9152 0 15.7646C0 15.9769 1.15267e-07 16.1589 0.0303351 16.4319C0.0303351 16.5533 0.0303347 16.5533 0.0606697 16.6746C0.151675 17.1903 0.455025 17.6453 0.910051 17.9183C1.09206 18.0094 1.51675 18.161 2.3358 18.161H8.73649Z" fill="#3688FF"/>
</svg>
